<svg id="Camada_1" data-name="Camada 1" xmlns="http://www.w3.org/2000/svg" viewBox="0 0 320 65.34"><defs><style>.cls-1{fill:#cc2b2b;}</style></defs><title>wtag-logo</title><path class="cls-1" d="M81.12,128.1H64.89l-8.11,16.33L48.67,128.1H32.45l16.22,32.67L40.56,177.1l-8.11-16.33L16.22,128.1H0l16.22,32.67,16.22,32.67H48.67l8.11-16.33,8.11,16.33H81.12l16.22-32.67Zm-7.95,48.85L65,160.51l8.17-16.44,8.17,16.44Z" transform="translate(0 -128.1)"/><path class="cls-1" d="M183.23,136.46,161,177.1h-14.1L143.12,155,131.2,177.1H117.26l-6.9-40.64h13l3.67,24.44,13.42-24.44h12.22l3.75,24.44,13.42-24.44Z" transform="translate(0 -128.1)"/><path class="cls-1" d="M200.52,165.87a14.14,14.14,0,0,0-.17,1.53q0,3.9,4.24,3.9a10.3,10.3,0,0,0,4.84-1.36l2,11.11a23.82,23.82,0,0,1-12,2.71q-7.12,0-11.32-3.56t-4.2-9.93a19.74,19.74,0,0,1,.42-4.33l3.06-15.14h-6.79l2.46-10.76h6.66l2.37-12h16.1l-2.37,12h10.49L214,150.81H203.57Z" transform="translate(0 -128.1)"/><path class="cls-1" d="M265.59,136.46l-8.1,40.64H244l.82-3.82a16.69,16.69,0,0,1-11.49,4.5,17.08,17.08,0,0,1-4.84-.62,16.5,16.5,0,0,1-10.2-8,19.61,19.61,0,0,1-2.4-9.9,24.32,24.32,0,0,1,3-12,22.26,22.26,0,0,1,8-8.43,20.9,20.9,0,0,1,11.06-3.07q8.85,0,12.45,5.55l1-4.87ZM245.06,165.1a12.35,12.35,0,0,0,2.75-8.33,7.94,7.94,0,0,0-2.1-5.81,7.73,7.73,0,0,0-5.77-2.14,8.94,8.94,0,0,0-7.11,3.21,12.48,12.48,0,0,0-2.75,8.41,7.27,7.27,0,0,0,7.88,7.88A8.93,8.93,0,0,0,245.06,165.1Z" transform="translate(0 -128.1)"/><path class="cls-1" d="M320,136.46l-6.73,33.8q-2.37,12-9.25,17.59t-18.12,5.58q-12.54,0-20.19-5.35l6.5-10.1a19,19,0,0,0,6.27,3.13,26.45,26.45,0,0,0,7.8,1.15q5.43,0,8.22-2.33a11.69,11.69,0,0,0,3.71-7l.31-1.38A16.6,16.6,0,0,1,287,175.77a19.45,19.45,0,0,1-9.1-2.14,16.43,16.43,0,0,1-6.58-6.16,17.64,17.64,0,0,1-2.45-9.37A22.06,22.06,0,0,1,280,138.76a22.79,22.79,0,0,1,11.55-3,18,18,0,0,1,8.22,1.76,10.65,10.65,0,0,1,5.08,5.51l1.3-6.58Zm-21.68,26.34a9.8,9.8,0,0,0,2.71-7.19,6.35,6.35,0,0,0-2.06-4.93,8.12,8.12,0,0,0-5.66-1.87,9.55,9.55,0,0,0-7.11,2.79,9.85,9.85,0,0,0-2.75,7.23,6.23,6.23,0,0,0,2.06,4.89,8.34,8.34,0,0,0,5.74,1.84A9.49,9.49,0,0,0,298.32,162.81Z" transform="translate(0 -128.1)"/></svg>